<mxfile host="app.diagrams.net" agent="Mozilla/5.0 (Windows NT 10.0; Win64; x64) AppleWebKit/537.36 (KHTML, like Gecko) Chrome/127.0.0.0 Safari/537.36" version="24.7.7">
  <diagram name="Page-1" id="3UwIjBbgKGhTb-XJYW_n">
    <mxGraphModel dx="1050" dy="522" grid="1" gridSize="10" guides="1" tooltips="1" connect="1" arrows="1" fold="1" page="1" pageScale="1" pageWidth="1169" pageHeight="827" math="0" shadow="0">
      <root>
        <mxCell id="0" />
        <mxCell id="1" parent="0" />
        <mxCell id="6L0O4bflN_-p-wdFT-dV-22" value="Strategy 3" style="ellipse;whiteSpace=wrap;html=1;aspect=fixed;fillColor=#FF8000;fontColor=#E0FF8A;fontStyle=1;fontSize=14;" vertex="1" parent="1">
          <mxGeometry x="610" y="60" width="180" height="180" as="geometry" />
        </mxCell>
        <mxCell id="6L0O4bflN_-p-wdFT-dV-1" value="" style="endArrow=classic;html=1;rounded=0;strokeWidth=2;strokeColor=#0905d6;" edge="1" parent="1">
          <mxGeometry width="50" height="50" relative="1" as="geometry">
            <mxPoint x="200" y="480" as="sourcePoint" />
            <mxPoint x="200" y="80" as="targetPoint" />
          </mxGeometry>
        </mxCell>
        <mxCell id="6L0O4bflN_-p-wdFT-dV-2" value="" style="endArrow=classic;html=1;rounded=0;strokeWidth=2;strokeColor=#00c203;" edge="1" parent="1">
          <mxGeometry width="50" height="50" relative="1" as="geometry">
            <mxPoint x="200" y="480" as="sourcePoint" />
            <mxPoint x="840" y="480" as="targetPoint" />
          </mxGeometry>
        </mxCell>
        <mxCell id="6L0O4bflN_-p-wdFT-dV-3" value="Cost" style="text;html=1;align=center;verticalAlign=middle;whiteSpace=wrap;rounded=0;fontSize=14;fontStyle=1;fontColor=#E6FFCC;" vertex="1" parent="1">
          <mxGeometry x="450" y="490" width="60" height="30" as="geometry" />
        </mxCell>
        <mxCell id="6L0O4bflN_-p-wdFT-dV-4" value="Effort" style="text;html=1;align=center;verticalAlign=middle;whiteSpace=wrap;rounded=0;fontSize=14;fontStyle=1;fontColor=#0D2ED3;textDirection=ltr;" vertex="1" parent="1">
          <mxGeometry x="130" y="190" width="60" height="100" as="geometry" />
        </mxCell>
        <mxCell id="6L0O4bflN_-p-wdFT-dV-6" value="" style="shape=note;whiteSpace=wrap;html=1;backgroundOutline=1;darkOpacity=0.05;strokeColor=#185354;fillColor=#2B3B39;gradientColor=none;" vertex="1" parent="1">
          <mxGeometry x="860" y="80" width="260" height="400" as="geometry" />
        </mxCell>
        <mxCell id="6L0O4bflN_-p-wdFT-dV-7" value="Low" style="text;html=1;align=center;verticalAlign=middle;whiteSpace=wrap;rounded=0;fontStyle=1;fontSize=14;" vertex="1" parent="1">
          <mxGeometry x="150" y="470" width="60" height="30" as="geometry" />
        </mxCell>
        <mxCell id="6L0O4bflN_-p-wdFT-dV-8" value="High" style="text;html=1;align=center;verticalAlign=middle;whiteSpace=wrap;rounded=0;fontStyle=1;fontSize=14;" vertex="1" parent="1">
          <mxGeometry x="140" y="70" width="60" height="30" as="geometry" />
        </mxCell>
        <mxCell id="6L0O4bflN_-p-wdFT-dV-9" value="High" style="text;html=1;align=center;verticalAlign=middle;whiteSpace=wrap;rounded=0;fontStyle=1;fontSize=14;" vertex="1" parent="1">
          <mxGeometry x="800" y="480" width="60" height="30" as="geometry" />
        </mxCell>
        <mxCell id="6L0O4bflN_-p-wdFT-dV-17" value="" style="edgeStyle=orthogonalEdgeStyle;rounded=0;orthogonalLoop=1;jettySize=auto;html=1;" edge="1" parent="1" source="6L0O4bflN_-p-wdFT-dV-10" target="6L0O4bflN_-p-wdFT-dV-16">
          <mxGeometry relative="1" as="geometry" />
        </mxCell>
        <mxCell id="6L0O4bflN_-p-wdFT-dV-10" value="1" style="ellipse;whiteSpace=wrap;html=1;aspect=fixed;fillColor=#FF6666;fontStyle=1;fontSize=16;fontColor=#CCFFE6;" vertex="1" parent="1">
          <mxGeometry x="860" y="100" width="50" height="50" as="geometry" />
        </mxCell>
        <mxCell id="6L0O4bflN_-p-wdFT-dV-11" value="2" style="ellipse;whiteSpace=wrap;html=1;aspect=fixed;fillColor=#66ff85;fontStyle=1;fontSize=14;" vertex="1" parent="1">
          <mxGeometry x="860" y="160" width="50" height="50" as="geometry" />
        </mxCell>
        <mxCell id="6L0O4bflN_-p-wdFT-dV-12" value="3" style="ellipse;whiteSpace=wrap;html=1;aspect=fixed;fillColor=#FF8000;fontStyle=1;fontSize=14;fontColor=#CCFFFF;" vertex="1" parent="1">
          <mxGeometry x="860" y="215" width="50" height="50" as="geometry" />
        </mxCell>
        <mxCell id="6L0O4bflN_-p-wdFT-dV-13" value="4" style="ellipse;whiteSpace=wrap;html=1;aspect=fixed;fillColor=#007FFF;fontSize=14;fontStyle=1;fontColor=#FFF4C3;" vertex="1" parent="1">
          <mxGeometry x="860" y="270" width="50" height="50" as="geometry" />
        </mxCell>
        <mxCell id="6L0O4bflN_-p-wdFT-dV-14" value="5" style="ellipse;whiteSpace=wrap;html=1;aspect=fixed;fillColor=#006600;fontStyle=1;fontSize=14;fontColor=#FFCCE6;" vertex="1" parent="1">
          <mxGeometry x="860" y="330" width="50" height="50" as="geometry" />
        </mxCell>
        <mxCell id="6L0O4bflN_-p-wdFT-dV-15" value="6" style="ellipse;whiteSpace=wrap;html=1;aspect=fixed;fillColor=#FF00FF;fontColor=#E6FFCC;fontStyle=1;fontSize=14;" vertex="1" parent="1">
          <mxGeometry x="860" y="388.5" width="50" height="50" as="geometry" />
        </mxCell>
        <mxCell id="6L0O4bflN_-p-wdFT-dV-16" value="&lt;b style=&quot;font-size: 12px;&quot;&gt;&lt;span lang=&quot;EN-GB&quot; style=&quot;font-size: 12px; font-family: Calibri, sans-serif;&quot;&gt;Strategy 1&lt;/span&gt;&lt;/b&gt;&lt;span lang=&quot;EN-GB&quot; style=&quot;font-size: 12px; line-height: 107%;&quot;&gt; # Adopting the current technology stack of C++, Qt and QML&lt;/span&gt;" style="text;html=1;align=left;verticalAlign=middle;whiteSpace=wrap;rounded=0;fontColor=#CCFFFF;fontSize=12;" vertex="1" parent="1">
          <mxGeometry x="915" y="110" width="195" height="30" as="geometry" />
        </mxCell>
        <mxCell id="6L0O4bflN_-p-wdFT-dV-18" value="Strategy 1" style="ellipse;whiteSpace=wrap;html=1;aspect=fixed;fillColor=#FF6666;fontStyle=1;fontSize=14;fontColor=#85FFEF;" vertex="1" parent="1">
          <mxGeometry x="520" y="250" width="70" height="70" as="geometry" />
        </mxCell>
        <mxCell id="6L0O4bflN_-p-wdFT-dV-19" value="&lt;font style=&quot;font-size: 13px;&quot;&gt;&lt;span lang=&quot;EN-GB&quot; style=&quot;font-family: Calibri, sans-serif;&quot;&gt;Strategy2&lt;/span&gt;&lt;span lang=&quot;EN-GB&quot; style=&quot;line-height: 107%;&quot;&gt; # React and Node.JS&amp;nbsp;&lt;/span&gt;&lt;/font&gt;&lt;div style=&quot;font-size: 13px;&quot;&gt;&lt;span lang=&quot;EN-GB&quot; style=&quot;line-height: 107%;&quot;&gt;&lt;font style=&quot;font-size: 13px;&quot;&gt;technology stack&lt;/font&gt;&lt;/span&gt;&lt;/div&gt;" style="text;html=1;align=left;verticalAlign=middle;whiteSpace=wrap;rounded=0;fontColor=#CCFFFF;" vertex="1" parent="1">
          <mxGeometry x="915" y="167" width="195" height="30" as="geometry" />
        </mxCell>
        <mxCell id="6L0O4bflN_-p-wdFT-dV-20" value="Strategy 2" style="ellipse;whiteSpace=wrap;html=1;aspect=fixed;fillColor=#66ff85;fontStyle=1;fontSize=15;" vertex="1" parent="1">
          <mxGeometry x="640" y="190" width="130" height="130" as="geometry" />
        </mxCell>
        <mxCell id="6L0O4bflN_-p-wdFT-dV-21" value="&lt;font style=&quot;font-size: 13px;&quot;&gt;&lt;b style=&quot;font-size: 13px;&quot;&gt;&lt;span style=&quot;font-family: Calibri, sans-serif; font-size: 13px;&quot; lang=&quot;EN-GB&quot;&gt;Strategy 3 &lt;/span&gt;&lt;/b&gt;&lt;span style=&quot;line-height: 107%; font-size: 13px;&quot; lang=&quot;EN-GB&quot;&gt;# Moving to Rust technology stack&lt;/span&gt;&lt;/font&gt;" style="text;html=1;align=left;verticalAlign=middle;whiteSpace=wrap;rounded=0;fontColor=#FFCE9F;fontSize=13;" vertex="1" parent="1">
          <mxGeometry x="915" y="225" width="190" height="30" as="geometry" />
        </mxCell>
        <mxCell id="6L0O4bflN_-p-wdFT-dV-23" value="&lt;h3 style=&quot;font-size: 10px;&quot;&gt;&lt;b style=&quot;font-size: 10px;&quot;&gt;&lt;span lang=&quot;EN-GB&quot; style=&quot;font-size: 10px;&quot;&gt;Strategy 4&lt;/span&gt;&lt;/b&gt;&lt;span lang=&quot;EN-GB&quot; style=&quot;font-size: 10px;&quot;&gt; # Hybrid Approach: Progressive Enhancement with WebAssembly (WASM)&lt;/span&gt;&lt;/h3&gt;" style="text;html=1;align=left;verticalAlign=middle;whiteSpace=wrap;rounded=0;fontColor=#D5E8D4;fontSize=10;" vertex="1" parent="1">
          <mxGeometry x="915" y="270" width="185" height="50" as="geometry" />
        </mxCell>
        <mxCell id="6L0O4bflN_-p-wdFT-dV-24" value="Strategy 4" style="ellipse;whiteSpace=wrap;html=1;aspect=fixed;fillColor=#007FFF;fontStyle=1;fontColor=#FFCCFF;fontSize=13;" vertex="1" parent="1">
          <mxGeometry x="410" y="145" width="120" height="120" as="geometry" />
        </mxCell>
        <mxCell id="6L0O4bflN_-p-wdFT-dV-25" value="&lt;h3 style=&quot;&quot;&gt;&lt;span style=&quot;font-weight: normal;&quot;&gt;&lt;span style=&quot;font-size: 12px;&quot;&gt;&lt;span lang=&quot;EN-GB&quot; style=&quot;&quot;&gt;Strategy 5&lt;/span&gt;&lt;/span&gt;&lt;span lang=&quot;EN-GB&quot; style=&quot;font-size: 12px;&quot;&gt; # Framework-Agnostic Web Components&lt;/span&gt;&lt;/span&gt;&lt;/h3&gt;" style="text;html=1;align=left;verticalAlign=middle;whiteSpace=wrap;rounded=0;fontColor=#CCFFE6;" vertex="1" parent="1">
          <mxGeometry x="920" y="340" width="200" height="30" as="geometry" />
        </mxCell>
        <mxCell id="6L0O4bflN_-p-wdFT-dV-26" value="Strategy 5" style="ellipse;whiteSpace=wrap;html=1;aspect=fixed;fillColor=#006600;fontStyle=1;fontSize=14;fontColor=#FFCCE6;" vertex="1" parent="1">
          <mxGeometry x="500" y="67" width="133" height="133" as="geometry" />
        </mxCell>
        <mxCell id="6L0O4bflN_-p-wdFT-dV-27" value="&lt;h3 style=&quot;font-size: 11px;&quot;&gt;&lt;span style=&quot;&quot;&gt;&lt;span style=&quot;font-size: 11px;&quot;&gt;&lt;span style=&quot;font-size: 11px;&quot; lang=&quot;EN-GB&quot;&gt;Strategy 6&lt;/span&gt;&lt;/span&gt;&lt;span style=&quot;font-size: 11px;&quot; lang=&quot;EN-GB&quot;&gt; # Explore Emerging Game Engines with Web3 Support&lt;/span&gt;&lt;/span&gt;&lt;/h3&gt;" style="text;html=1;align=left;verticalAlign=middle;whiteSpace=wrap;rounded=0;fontColor=#FF99FF;fontSize=11;fontStyle=1" vertex="1" parent="1">
          <mxGeometry x="920" y="399" width="190" height="30" as="geometry" />
        </mxCell>
        <mxCell id="6L0O4bflN_-p-wdFT-dV-30" value="Strategy 6" style="ellipse;whiteSpace=wrap;html=1;aspect=fixed;fillColor=#FF00FF;fontColor=#E6FFCC;fontStyle=1;fontSize=14;" vertex="1" parent="1">
          <mxGeometry x="330" y="240" width="100" height="100" as="geometry" />
        </mxCell>
        <mxCell id="6L0O4bflN_-p-wdFT-dV-31" value="&lt;font&gt;&lt;span style=&quot;font-weight: 700;&quot;&gt;Size of the&amp;nbsp;&lt;/span&gt;&lt;span style=&quot;font-weight: 700; background-color: initial;&quot;&gt;Circle is&amp;nbsp;&lt;/span&gt;&lt;span style=&quot;font-weight: 700; background-color: initial;&quot;&gt;releated to&amp;nbsp;&lt;/span&gt;&lt;span style=&quot;font-weight: 700; background-color: initial;&quot;&gt;Time&lt;/span&gt;&lt;/font&gt;&lt;div&gt;&lt;span style=&quot;font-weight: 700; background-color: initial;&quot;&gt;&lt;font&gt;Consumption&lt;/font&gt;&lt;/span&gt;&lt;/div&gt;" style="text;html=1;align=left;verticalAlign=middle;whiteSpace=wrap;rounded=0;fontColor=#FF00FF;" vertex="1" parent="1">
          <mxGeometry x="460" y="349" width="220" height="50" as="geometry" />
        </mxCell>
      </root>
    </mxGraphModel>
  </diagram>
</mxfile>
